HIERARCHY
ROOT hip
{
  OFFSET 0 0 0
  CHANNELS 6 Xposition Yposition Zposition Zrotation Yrotation Xrotation
  JOINT abdomen
  {
    OFFSET 0 20.6881 -0.73152
    CHANNELS 3 Zrotation Xrotation Yrotation
    JOINT chest
    {
      OFFSET 0 11.7043 -0.48768
      CHANNELS 3 Zrotation Xrotation Yrotation
      JOINT neck
      {
        OFFSET 0 22.1894 -2.19456
        CHANNELS 3 Zrotation Xrotation Yrotation
        JOINT head
        {
          OFFSET -0.24384 7.07133 1.2192
          CHANNELS 3 Zrotation Xrotation Yrotation
          JOINT leftEye
          {
            OFFSET 4.14528 8.04674 8.04672
            CHANNELS 3 Zrotation Xrotation Yrotation
            End Site
            {
              OFFSET 1 0 0
            }
          }
          JOINT rightEye
          {
            OFFSET -3.6576 8.04674 8.04672
            CHANNELS 3 Zrotation Xrotation Yrotation
            End Site
            {
              OFFSET 1 0 0
            }
          }
        }
      }
      JOINT rCollar
      {
        OFFSET -2.68224 19.2634 -4.8768
        CHANNELS 3 Zrotation Xrotation Yrotation
        JOINT rShldr
        {
          OFFSET -8.77824 -1.95073 1.46304
          CHANNELS 3 Zrotation Xrotation Yrotation
          JOINT rForeArm
          {
            OFFSET -28.1742 -1.7115 0.48768
            CHANNELS 3 Zrotation Xrotation Yrotation
            JOINT rHand
            {
              OFFSET -22.5879 0.773209 7.07136
              CHANNELS 3 Zrotation Xrotation Yrotation
              JOINT rThumb1
              {
                OFFSET -1.2192 -0.487915 3.41376
                CHANNELS 3 Zrotation Xrotation Yrotation
                JOINT rThumb2
                {
                  OFFSET -3.37035 -0.52449 3.41376
                  CHANNELS 3 Zrotation Xrotation Yrotation
                  End Site
                  {
                    OFFSET -1.78271 -1.18214 1.43049
                  }
                }
              }
              JOINT rIndex1
              {
                OFFSET -7.75947 0.938293 5.60832
                CHANNELS 3 Zrotation Xrotation Yrotation
                JOINT rIndex2
                {
                  OFFSET -2.54057 -0.884171 1.56538
                  CHANNELS 3 Zrotation Xrotation Yrotation
                  End Site
                  {
                    OFFSET -1.62519 -0.234802 1.16502
                  }
                }
              }
              JOINT rMid1
              {
                OFFSET -8.24714 1.18213 3.41376
                CHANNELS 3 Zrotation Xrotation Yrotation
                JOINT rMid2
                {
                  OFFSET -3.10165 -0.590103 1.0647
                  CHANNELS 3 Zrotation Xrotation Yrotation
                  End Site
                  {
                    OFFSET -2.48547 -0.328903 0.83742
                  }
                }
              }
              JOINT rRing1
              {
                OFFSET -8.82822 0.546677 1.51678
                CHANNELS 3 Zrotation Xrotation Yrotation
                JOINT rRing2
                {
                  OFFSET -2.60934 -0.819778 -0.0198488
                  CHANNELS 3 Zrotation Xrotation Yrotation
                  End Site
                  {
                    OFFSET -2.33842 -0.294052 0.168128
                  }
                }
              }
              JOINT rPinky1
              {
                OFFSET -8.27202 -0.0477905 -0.4584
                CHANNELS 3 Zrotation Xrotation Yrotation
                JOINT rPinky2
                {
                  OFFSET -1.82734 -0.647385 -0.700984
                  CHANNELS 3 Zrotation Xrotation Yrotation
                  End Site
                  {
                    OFFSET -1.69225 -0.51767 -0.607171
                  }
                }
              }
            }
          }
        }
      }
      JOINT lCollar
      {
        OFFSET 2.68224 19.2634 -4.8768
        CHANNELS 3 Zrotation Xrotation Yrotation
        JOINT lShldr
        {
          OFFSET 8.77824 -1.95073 1.46304
          CHANNELS 3 Zrotation Xrotation Yrotation
          JOINT lForeArm
          {
            OFFSET 28.1742 -1.7115 0.48768
            CHANNELS 3 Zrotation Xrotation Yrotation
            JOINT lHand
            {
              OFFSET 22.5879 0.773209 7.07136
              CHANNELS 3 Zrotation Xrotation Yrotation
              JOINT lThumb1
              {
                OFFSET 1.2192 -0.487915 3.41376
                CHANNELS 3 Zrotation Xrotation Yrotation
                JOINT lThumb2
                {
                  OFFSET 3.37035 -0.52449 3.41376
                  CHANNELS 3 Zrotation Xrotation Yrotation
                  End Site
                  {
                    OFFSET 1.78271 -1.18214 1.43049
                  }
                }
              }
              JOINT lIndex1
              {
                OFFSET 7.75947 0.938293 5.60832
                CHANNELS 3 Zrotation Xrotation Yrotation
                JOINT lIndex2
                {
                  OFFSET 2.54057 -0.884171 1.56538
                  CHANNELS 3 Zrotation Xrotation Yrotation
                  End Site
                  {
                    OFFSET 1.62519 -0.234802 1.16502
                  }
                }
              }
              JOINT lMid1
              {
                OFFSET 8.24714 1.18213 3.41376
                CHANNELS 3 Zrotation Xrotation Yrotation
                JOINT lMid2
                {
                  OFFSET 3.10165 -0.590103 1.0647
                  CHANNELS 3 Zrotation Xrotation Yrotation
                  End Site
                  {
                    OFFSET 2.48547 -0.328903 0.83742
                  }
                }
              }
              JOINT lRing1
              {
                OFFSET 8.82822 0.546677 1.51678
                CHANNELS 3 Zrotation Xrotation Yrotation
                JOINT lRing2
                {
                  OFFSET 2.60934 -0.819778 -0.0198488
                  CHANNELS 3 Zrotation Xrotation Yrotation
                  End Site
                  {
                    OFFSET 2.33842 -0.294052 0.168128
                  }
                }
              }
              JOINT lPinky1
              {
                OFFSET 8.27202 -0.0477905 -0.4584
                CHANNELS 3 Zrotation Xrotation Yrotation
                JOINT lPinky2
                {
                  OFFSET 1.82734 -0.647385 -0.700984
                  CHANNELS 3 Zrotation Xrotation Yrotation
                  End Site
                  {
                    OFFSET 1.69225 -0.51767 -0.607171
                  }
                }
              }
            }
          }
        }
      }
    }
  }
  JOINT rButtock
  {
    OFFSET -8.77824 4.35084 1.2192
    CHANNELS 3 Zrotation Xrotation Yrotation
    JOINT rThigh
    {
      OFFSET 0 -1.70687 -2.19456
      CHANNELS 3 Zrotation Xrotation Yrotation
      JOINT rShin
      {
        OFFSET 0 -36.8199 0.73152
        CHANNELS 3 Zrotation Xrotation Yrotation
        JOINT rFoot
        {
          OFFSET 0.73152 -45.1104 -5.12064
          CHANNELS 3 Zrotation Xrotation Yrotation
          End Site
          {
            OFFSET -1.1221 -3.69964 12.103
          }
        }
      }
    }
  }
  JOINT lButtock
  {
    OFFSET 8.77824 4.35084 1.2192
    CHANNELS 3 Zrotation Xrotation Yrotation
    JOINT lThigh
    {
      OFFSET 0 -1.70687 -2.19456
      CHANNELS 3 Zrotation Xrotation Yrotation
      JOINT lShin
      {
        OFFSET 0 -36.8199 0.73152
        CHANNELS 3 Zrotation Xrotation Yrotation
        JOINT lFoot
        {
          OFFSET -0.73152 -45.1104 -5.12064
          CHANNELS 3 Zrotation Xrotation Yrotation
          End Site
          {
            OFFSET 1.1221 -3.69964 12.103
          }
        }
      }
    }
  }
}
MOTION
Frames:	4
Frame Time:	0.00833333
-5.04911 84.6589 35.5274 0.0 0.0 0.0 -0.555338 -0.00305886 -0.0158854 -0.153307 -0.00476084 -0.026563 1.51488e-15 0.0 -2.48481e-17 4.59379e-15 3.18055e-15 -8.38623e-17 -0.0 0.0 0.0 -0.0 0.0 0.0 8.43571e-16 6.0179e-18 1.98785e-16 1.667e-14 2.36057e-16 5.96354e-16 2.66719e-13 -7.35503e-14 6.36111e-15 3.05691e-12 1.08015e-13 -6.99722e-14 7.20811e-12 6.98308e-14 -1.01778e-13 1.24423e-11 1.17681e-13 -1.63799e-13 7.21111e-12 7.196e-14 -1.01778e-13 7.73091 5.47488 0.417314 7.20783e-12 6.94752e-14 -9.54166e-14 2.90554 0.965183 0.102902 7.21181e-12 6.97734e-14 -9.46215e-14 10.2786 0.731801 0.0259123 7.20336e-12 7.23576e-14 -8.5875e-14 2.22167 -0.733487 -0.20892 6.47365e-16 5.62964e-18 -1.98785e-16 1.3945e-14 -1.67725e-16 -9.93923e-16 2.68956e-13 8.15017e-14 -3.49861e-14 3.04974e-12 -6.85062e-14 0.0 7.20198e-12 3.09995e-14 -8.90555e-14 1.24483e-11 5.08889e-14 -1.62208e-13 7.19919e-12 3.02153e-14 -8.5875e-14 -7.73091 5.47488 -0.417314 7.20361e-12 3.06128e-14 -9.85972e-14 -2.90554 0.965183 -0.102902 7.20077e-12 3.06128e-14 -9.70069e-14 -10.2786 0.731801 -0.0259123 7.20674e-12 3.33958e-14 -1.04958e-13 -2.22167 -0.733487 0.20892 -2.03217e-16 0.0 -3.88251e-19 0.064434 -2.35905 -0.0223816 -0.00798382 -1.27853 -0.0684594 -0.484723 3.63779 0.128971 2.03217e-16 0.0 3.88251e-19 -0.910346 -4.50048 0.0764521 0.00202142 2.60028 0.0092732 0.492885 1.9005 -0.0947747
-5.37182 83.0961 32.1323 25.4592 -78.0399 -5.048 0.989019 -6.68872 -1.05799 -1.12498 -2.31481 -0.651535 2.55723 2.45313 4.95727 -1.13659 -4.24789 9.39591 -0.0 0.0 0.0 -0.0 0.0 0.0 -3.85924e-14 4.3599e-13 -3.88325e-14 -8.56385 -6.26424 -5.07537 -29.0134 -26.1915 12.8083 0.554892 -16.6591 -1.99936 3.20177e-10 -3.93643e-10 -2.01668e-10 5.61356e-10 -6.68067e-10 -3.30954e-10 3.2018e-10 -3.93643e-10 -2.01671e-10 7.73091 5.47488 0.417314 3.20177e-10 -3.93644e-10 -2.01662e-10 2.90554 0.965183 0.102902 3.20181e-10 -3.93644e-10 -2.01662e-10 10.2786 0.731801 0.0259123 3.20173e-10 -3.93642e-10 -2.01653e-10 2.22167 -0.733487 -0.20892 -3.87972e-14 4.3599e-13 -3.91893e-14 10.3031 -9.46897 -1.67877 4.288 -1.96206 -6.68252 -0.357202 -13.3263 1.69513 -1.11356e-10 1.67934e-10 4.06704e-10 -2.06621e-10 3.07912e-10 6.9769e-10 -1.11362e-10 1.67927e-10 4.06707e-10 -7.73091 5.47488 -0.417314 -1.11355e-10 1.67926e-10 4.06696e-10 -2.90554 0.965183 -0.102902 -1.11356e-10 1.67926e-10 4.06698e-10 -10.2786 0.731801 -0.0259123 -1.11352e-10 1.67935e-10 4.0669e-10 -2.22167 -0.733487 0.20892 -2.03217e-16 0.0 -3.88251e-19 -8.39088 -5.54031 1.63279 -0.0280997 4.14902 -0.0195381 -0.591472 3.87756 -5.89381 2.03217e-16 0.0 3.88251e-19 -4.96227 -8.95316 0.96021 0.00759113 5.44276 -0.0109776 0.448047 -1.77431 -0.329714
-5.44508 83.0444 32.1793 25.785 -77.9055 -5.7015 2.35011 -13.7489 -2.21271 -2.20499 -4.75755 -1.31702 4.79546 4.98907 10.2311 -0.83401 -8.36034 19.499 -0.0 0.0 0.0 -0.0 0.0 0.0 -8.24614e-14 9.02447e-13 -8.10824e-14 -18.8496 -12.7255 -10.6373 -41.6534 -48.6996 37.3457 -0.361776 -34.1987 -4.76584 6.70101e-10 -8.33691e-10 -4.26543e-10 1.17506e-09 -1.41479e-09 -6.99943e-10 6.70103e-10 -8.33692e-10 -4.2655e-10 7.73091 5.47488 0.417314 6.701e-10 -8.33693e-10 -4.26538e-10 2.90554 0.965183 0.102902 6.70106e-10 -8.33692e-10 -4.2654e-10 10.2786 0.731801 0.0259123 6.70096e-10 -8.3369e-10 -4.26529e-10 2.22167 -0.733487 -0.20892 -8.26781e-14 9.02447e-13 -8.13961e-14 20.5594 -19.4427 -3.60657 8.32583 -3.94641 -13.77 0.220424 -27.3746 3.8218 -2.3944e-10 3.51916e-10 8.57988e-10 -4.43743e-10 6.45591e-10 1.47199e-09 -2.39449e-10 3.51903e-10 8.57992e-10 -7.73091 5.47488 -0.417314 -2.39439e-10 3.519e-10 8.57981e-10 -2.90554 0.965183 -0.102902 -2.39439e-10 3.519e-10 8.57983e-10 -10.2786 0.731801 -0.0259123 -2.39437e-10 3.51917e-10 8.57976e-10 -2.22167 -0.733487 0.20892 -2.03217e-16 0.0 -3.88251e-19 -17.1314 -8.89433 3.40774 -0.0597814 9.88799 0.0319216 -0.638683 4.13137 -12.2665 2.03217e-16 0.0 3.88251e-19 -9.09545 -13.6474 1.9004 0.0156938 8.44372 -0.0326198 0.370713 -5.65793 -0.557941
-5.45148 83.037 32.214 26.2283 -77.824 -6.1755 3.30845 -20.0324 -3.32178 -3.22042 -6.93153 -1.91388 6.40573 7.13869 14.9769 0.650458 -11.3711 28.7242 -0.0 0.0 0.0 -0.0 0.0 0.0 -1.17464e-13 1.30796e-12 -1.16895e-13 -29.1243 -18.1883 -15.9516 -31.0496 -54.4002 76.1914 -3.42107 -49.6641 -8.89854 9.46115e-10 -1.18107e-09 -6.04799e-10 1.65918e-09 -2.00444e-09 -9.92535e-10 9.46117e-10 -1.18107e-09 -6.04809e-10 7.73091 5.47488 0.417314 9.46115e-10 -1.18107e-09 -6.04795e-10 2.90554 0.965183 0.102902 9.4612e-10 -1.18107e-09 -6.04798e-10 10.2786 0.731801 0.0259123 9.46111e-10 -1.18107e-09 -6.04787e-10 2.22167 -0.733487 -0.20892 -1.17686e-13 1.30796e-12 -1.1717e-13 29.0553 -28.3025 -5.64421 11.5167 -5.56657 -20.1348 1.89512 -39.8168 6.44804 -3.48471e-10 5.03739e-10 1.22029e-09 -6.44759e-10 9.23634e-10 2.09339e-09 -3.48484e-10 5.03721e-10 1.22029e-09 -7.73091 5.47488 -0.417314 -3.48471e-10 5.03716e-10 1.22028e-09 -2.90554 0.965183 -0.102902 -3.4847e-10 5.03716e-10 1.22029e-09 -10.2786 0.731801 -0.0259123 -3.48469e-10 5.03739e-10 1.22028e-09 -2.22167 -0.733487 0.20892 -2.03217e-16 0.0 -3.88251e-19 -24.7401 -11.865 5.0279 -0.0966471 15.0041 0.081192 -0.660816 4.20448 -17.9482 2.03217e-16 0.0 3.88251e-19 -12.635 -17.8418 2.82927 0.0248582 11.1277 -0.0522948 0.266929 -9.12314 -0.809463
